ffmpeg version 3.4.8-0ubuntu0.2 Copyright (c) 2000-2020 the FFmpeg developers
  built with gcc 7 (Ubuntu 7.5.0-3ubuntu1~18.04)
  configuration: --prefix=/usr --extra-version=0ubuntu0.2 --toolchain=hardened --libdir=/usr/lib/x86_64-linux-gnu --incdir=/usr/include/x86_64-linux-gnu --enable-gpl --disable-stripping --enable-avresample --enable-avisynth --enable-gnutls --enable-ladspa --enable-libass --enable-libbluray --enable-libbs2b --enable-libcaca --enable-libcdio --enable-libflite --enable-libfontconfig --enable-libfreetype --enable-libfribidi --enable-libgme --enable-libgsm --enable-libmp3lame --enable-libmysofa --enable-libopenjpeg --enable-libopenmpt --enable-libopus --enable-libpulse --enable-librubberband --enable-librsvg --enable-libshine --enable-libsnappy --enable-libsoxr --enable-libspeex --enable-libssh --enable-libtheora --enable-libtwolame --enable-libvorbis --enable-libvpx --enable-libwavpack --enable-libwebp --enable-libx265 --enable-libxml2 --enable-libxvid --enable-libzmq --enable-libzvbi --enable-omx --enable-openal --enable-opengl --enable-sdl2 --enable-libdc1394 --enable-libdrm --enable-libiec61883 --enable-chromaprint --enable-frei0r --enable-libopencv --enable-libx264 --enable-shared
  libavutil      55. 78.100 / 55. 78.100
  libavcodec     57.107.100 / 57.107.100
  libavformat    57. 83.100 / 57. 83.100
  libavdevice    57. 10.100 / 57. 10.100
  libavfilter     6.107.100 /  6.107.100
  libavresample   3.  7.  0 /  3.  7.  0
  libswscale      4.  8.100 /  4.  8.100
  libswresample   2.  9.100 /  2.  9.100
  libpostproc    54.  7.100 / 54.  7.100
[rawvideo @ 0x55ce7fbeaa20] Estimating duration from bitrate, this may be inaccurate
Input #0, rawvideo, from '../../SVC-Encoder-20220109T061506Z-001/SVC-Encoder/Dataset/RollerCoaster/ERP_8x8/tile_yuv/Tile_12_480x240.yuv':
  Duration: 00:00:10.00, start: 0.000000, bitrate: 41472 kb/s
    Stream #0:0: Video: rawvideo (I420 / 0x30323449), yuv420p, 480x240, 41472 kb/s, 30 tbr, 30 tbn, 30 tbc
Stream mapping:
  Stream #0:0 -> #0:0 (rawvideo (native) -> h264 (libx264))
Press [q] to stop, [?] for help
[libx264 @ 0x55ce7fbf7c60] using cpu capabilities: MMX2 SSE2Fast LZCNT SSSE3 SSE4.2 AVX
[libx264 @ 0x55ce7fbf7c60] profile High, level 2.1
Output #0, rawvideo, to 'RollerCoaster_Tile_12_480x240_x264_QP_24.h264':
  Metadata:
    encoder         : Lavf57.83.100
    Stream #0:0: Video: h264 (libx264), yuv420p, 480x240, q=-1--1, 30 fps, 30 tbn, 30 tbc
    Metadata:
      encoder         : Lavc57.107.100 libx264
    Side data:
      cpb: bitrate max/min/avg: 0/0/0 buffer size: 0 vbv_delay: -1
frame=  300 fps=0.0 q=30.0 LPSNR=Y:inf U:inf V:inf *:inf size=      15kB time=00:00:09.93 bitrate=  12.1kbits/s speed=40.9x    
video:15kB audio:0kB subtitle:0kB other streams:0kB global headers:0kB muxing overhead: 0.000000%
[libx264 @ 0x55ce7fbf7c60] frame I:3     Avg QP:22.21  size:  1228  PSNR Mean Y:53.40 U:61.25 V:57.96 Avg:54.58 Global:54.02
[libx264 @ 0x55ce7fbf7c60] frame P:76    Avg QP:24.34  size:    94  PSNR Mean Y:54.18 U:59.85 V:57.19 Avg:55.17 Global:55.12
[libx264 @ 0x55ce7fbf7c60] frame B:221   Avg QP:29.62  size:    19  PSNR Mean Y:54.13 U:59.72 V:57.16 Avg:55.11 Global:55.04
[libx264 @ 0x55ce7fbf7c60] consecutive B-frames:  1.3%  0.7%  2.0% 96.0%
[libx264 @ 0x55ce7fbf7c60] mb I  I16..4: 91.1%  5.7%  3.2%
[libx264 @ 0x55ce7fbf7c60] mb P  I16..4:  2.9%  1.0%  0.0%  P16..4:  4.3%  0.3%  0.0%  0.0%  0.0%    skip:91.5%
[libx264 @ 0x55ce7fbf7c60] mb B  I16..4:  0.0%  0.0%  0.0%  B16..8:  0.4%  0.0%  0.0%  direct: 0.0%  skip:99.5%  L0:38.1% L1:60.9% BI: 1.0%
[libx264 @ 0x55ce7fbf7c60] 8x8 transform intra:15.5% inter:77.7%
[libx264 @ 0x55ce7fbf7c60] coded y,uvDC,uvAC intra: 2.8% 6.6% 0.0% inter: 0.0% 0.1% 0.0%
[libx264 @ 0x55ce7fbf7c60] i16 v,h,dc,p: 14% 62% 12% 11%
[libx264 @ 0x55ce7fbf7c60] i8 v,h,dc,ddl,ddr,vr,hd,vl,hu:  3% 37% 56%  0%  1%  0%  2%  0%  1%
[libx264 @ 0x55ce7fbf7c60] i4 v,h,dc,ddl,ddr,vr,hd,vl,hu:  7% 36% 27%  5%  4%  3% 11%  2%  5%
[libx264 @ 0x55ce7fbf7c60] i8c dc,h,v,p: 82% 12%  5%  0%
[libx264 @ 0x55ce7fbf7c60] Weighted P-Frames: Y:0.0% UV:0.0%
[libx264 @ 0x55ce7fbf7c60] ref P L0: 90.5%  2.3%  5.8%  1.5%
[libx264 @ 0x55ce7fbf7c60] ref B L0: 88.5%  9.6%  1.8%
[libx264 @ 0x55ce7fbf7c60] ref B L1: 96.3%  3.7%
[libx264 @ 0x55ce7fbf7c60] PSNR Mean Y:54.134 U:59.769 V:57.174 Avg:55.116 Global:55.045 kb/s:12.01
